<?xml version="1.0" encoding="UTF-8" standalone="no"?>
<!DOCTYPE svg PUBLIC "-//W3C//DTD SVG 1.1//EN" "http://www.w3.org/Graphics/SVG/1.1/DTD/svg11.dtd">
<svg xmlns="http://www.w3.org/2000/svg" version="1.1" viewBox="0.00 0.00 357.00 392.00">
<path stroke="#0140ff" stroke-width="2.00" fill="none" stroke-linecap="butt" vector-effect="non-scaling-stroke" d="
  M 262.64 108.25
  L 132.57 108.57
  A 0.65 0.64 -86.5 0 0 131.93 109.14
  Q 121.88 187.58 111.31 265.30
  Q 109.91 275.59 109.20 283.25
  Q 109.16 283.70 108.55 284.41"
/>
<path fill="#0014ff" d="
  M 262.64 108.25
  L 132.57 108.57
  A 0.65 0.64 -86.5 0 0 131.93 109.14
  Q 121.88 187.58 111.31 265.30
  Q 109.91 275.59 109.20 283.25
  Q 109.16 283.70 108.55 284.41
  L 59.57 283.95
  A 0.71 0.70 89.6 0 1 58.87 283.25
  Q 58.86 280.78 59.20 278.25
  Q 70.57 193.02 81.64 107.76
  Q 86.82 67.84 92.10 28.90
  Q 92.24 27.86 93.28 27.86
  Q 169.04 28.02 249.10 27.91
  Q 254.94 27.90 258.22 28.99
  C 265.83 31.52 271.19 38.35 270.17 46.74
  Q 266.78 74.38 263.26 102.00
  Q 262.65 106.84 262.64 108.25
  Z"
/>
<path fill="#016bff" d="
  M 262.64 108.25
  Q 262.99 108.83 263.50 108.82
  Q 273.98 108.71 284.46 108.75
  C 294.90 108.80 300.79 108.43 307.10 115.87
  Q 309.51 118.71 310.04 123.48
  Q 310.36 126.26 309.79 130.84
  Q 305.38 165.92 300.52 201.35
  Q 300.14 204.10 299.99 206.44
  C 299.84 208.81 299.21 210.85 298.95 213.21
  Q 298.24 219.55 297.40 225.76
  Q 289.04 287.75 279.79 362.69
  A 2.55 2.54 3.4 0 1 277.26 364.93
  L 101.18 364.93
  A 1.98 1.98 0.0 0 1 99.20 362.85
  C 99.48 357.13 100.72 351.41 101.40 345.69
  Q 105.15 313.80 108.93 285.24
  Q 109.01 284.63 108.55 284.41
  Q 109.16 283.70 109.20 283.25
  Q 109.91 275.59 111.31 265.30
  Q 121.88 187.58 131.93 109.14
  A 0.65 0.64 -86.5 0 1 132.57 108.57
  L 262.64 108.25
  Z"
/>
</svg>
